<svg width="32" height="32" fill="none" stroke="black" stroke-width=".75" xmlns="http://www.w3.org/2000/svg">
    <path d="M6.875.375h18.25a6.5 6.5 0 0 1 6.5 6.5v18.25a6.5 6.5 0 0 1-6.5 6.5H6.875a6.5 6.5 0 0 1-6.5-6.5V6.875a6.5 6.5 0 0 1 6.5-6.5Z"/>
    <path d="M11.125 23.625a2.625 2.625 0 1 1-5.25 0 2.625 2.625 0 0 1 5.25 0Zm-5.25-11.12A14.123 14.123 0 0 1 19.62 26.25h-3.502A10.625 10.625 0 0 0 5.875 16.007v-3.502Z"/>
    <path d="M23.371 26.25A17.875 17.875 0 0 0 5.875 8.754V5.128A21.5 21.5 0 0 1 26.997 26.25H23.37Z"/>
</svg>
